<?xml version="1.0" encoding="UTF-8" standalone="no"?>
<svg
   xmlns:dc="http://purl.org/dc/elements/1.1/"
   xmlns:cc="http://creativecommons.org/ns#"
   xmlns:rdf="http://www.w3.org/1999/02/22-rdf-syntax-ns#"
   xmlns:svg="http://www.w3.org/2000/svg"
   xmlns="http://www.w3.org/2000/svg"
   xmlns:sodipodi="http://sodipodi.sourceforge.net/DTD/sodipodi-0.dtd"
   xmlns:inkscape="http://www.inkscape.org/namespaces/inkscape"
   version="1.1"
   id="Layer_1"
   x="0px"
   y="0px"
   viewBox="0 0 566.79996 56.799997"
   xml:space="preserve"
   sodipodi:docname="5d07dc3917bf6193f2e37f9b_logo-AO-no-margin.svg"
   width="566.79999"
   height="56.799999"
   inkscape:version="1.0.2-2 (e86c870879, 2021-01-15)"><metadata
   id="metadata41"><rdf:RDF><cc:Work
       rdf:about=""><dc:format>image/svg+xml</dc:format><dc:type
         rdf:resource="http://purl.org/dc/dcmitype/StillImage" /></cc:Work></rdf:RDF></metadata><defs
   id="defs39" /><sodipodi:namedview
   pagecolor="#ffffff"
   bordercolor="#666666"
   borderopacity="1"
   objecttolerance="10"
   gridtolerance="10"
   guidetolerance="10"
   inkscape:pageopacity="0"
   inkscape:pageshadow="2"
   inkscape:window-width="1920"
   inkscape:window-height="1017"
   id="namedview37"
   showgrid="false"
   inkscape:zoom="2.1414711"
   inkscape:cx="283.45001"
   inkscape:cy="49.550003"
   inkscape:window-x="-8"
   inkscape:window-y="-8"
   inkscape:window-maximized="1"
   inkscape:current-layer="Layer_1" />
<style
   type="text/css"
   id="style2">
	.st0{fill:#EC6B00;}
</style>
<g
   id="g34"
   transform="translate(0,-35.5)">
	<g
   id="g32">
		<g
   id="g22">
			<path
   d="m 106.4,82.7 v 8.6 H 72 V 36.8 h 9.9 v 45.9 z"
   id="path4" />
			<path
   d="m 129.4,36.2 c 7.9,0 14,1.4 18.2,4.3 4.2,2.9 6.3,7.4 6.3,13.5 0,3.2 -0.6,5.9 -1.7,8.2 -1.1,2.3 -2.8,4.1 -4.9,5.6 -2.1,1.4 -4.8,2.5 -7.9,3.2 -3.1,0.7 -6.6,1 -10.6,1 h -4.9 V 91.2 H 114 V 37.6 c 2.3,-0.5 4.9,-0.9 7.7,-1.1 2.8,-0.2 5.3,-0.3 7.7,-0.3 z m 0.7,8.6 c -2.5,0 -4.6,0.1 -6.2,0.2 v 18.5 h 4.8 c 4.8,0 8.4,-0.7 11,-2 2.6,-1.3 3.9,-3.9 3.9,-7.6 0,-1.8 -0.3,-3.3 -1,-4.5 -0.7,-1.2 -1.6,-2.1 -2.8,-2.8 -1.2,-0.7 -2.6,-1.2 -4.3,-1.5 -1.8,-0.1 -3.5,-0.3 -5.4,-0.3 z"
   id="path6" />
			<path
   d="m 196.5,36.8 h 9.9 v 54.4 h -9.9 V 67.1 H 172.9 V 91.2 H 163 V 36.8 h 9.9 v 21.8 h 23.6 z"
   id="path8" />
			<path
   d="m 255.6,91.2 c -0.7,-2.1 -1.5,-4.3 -2.3,-6.4 -0.8,-2.1 -1.5,-4.2 -2.3,-6.4 h -23 c -0.7,2.2 -1.5,4.4 -2.2,6.5 -0.8,2.1 -1.5,4.2 -2.2,6.3 h -10.3 c 2,-5.8 4,-11.2 5.8,-16.1 1.8,-4.9 3.6,-9.6 5.4,-14 1.8,-4.4 3.5,-8.6 5.2,-12.6 1.7,-4 3.5,-7.9 5.3,-11.8 h 9.4 c 1.8,3.9 3.6,7.8 5.3,11.8 1.7,4 3.5,8.2 5.2,12.6 1.8,4.4 3.6,9.1 5.4,14 1.9,4.9 3.8,10.3 5.9,16.1 z M 239.5,47.3 c -1.2,2.8 -2.6,6.2 -4.1,10.1 -1.5,4 -3.2,8.3 -4.8,13 h 17.9 c -1.7,-4.7 -3.3,-9 -4.9,-13 -1.6,-4 -2.9,-7.4 -4.1,-10.1 z"
   id="path10" />
			<path
   d="m 364.8,36.8 c 1.2,2 2.4,4.4 3.9,7.3 1.4,2.9 2.9,5.9 4.3,9.1 1.5,3.2 2.9,6.4 4.4,9.7 1.4,3.3 2.8,6.3 4,9.1 1.2,-2.8 2.5,-5.8 3.9,-9.1 1.4,-3.3 2.9,-6.5 4.3,-9.7 1.5,-3.2 2.9,-6.2 4.3,-9.1 1.4,-2.9 2.7,-5.3 3.9,-7.3 h 8.9 c 0.5,4 0.9,8.2 1.4,12.7 0.5,4.5 0.8,9.1 1.2,13.7 0.3,4.7 0.7,9.4 1,14.1 0.3,4.7 0.5,9.4 0.8,13.9 h -9.7 c -0.2,-6.3 -0.5,-12.9 -0.8,-19.6 -0.3,-6.7 -0.7,-13.2 -1.3,-19.5 -0.6,1.2 -1.3,2.6 -2,4.3 -0.8,1.7 -1.6,3.5 -2.5,5.5 -0.9,2 -1.8,4 -2.7,6.1 -0.9,2.1 -1.8,4.1 -2.7,6.1 -0.9,2 -1.7,3.8 -2.4,5.5 -0.7,1.7 -1.4,3.2 -1.9,4.4 h -7.4 c -0.5,-1.2 -1.2,-2.7 -1.9,-4.4 -0.7,-1.7 -1.5,-3.6 -2.4,-5.5 -0.9,-2 -1.8,-4 -2.7,-6.1 -0.9,-2.1 -1.8,-4.1 -2.7,-6.1 -0.9,-1.9 -1.7,-3.8 -2.5,-5.5 -0.8,-1.7 -1.5,-3.1 -2,-4.3 -0.6,6.3 -1,12.8 -1.3,19.5 -0.3,6.7 -0.5,13.2 -0.8,19.6 h -9.7 c 0.2,-4.5 0.5,-9.2 0.8,-14 0.3,-4.8 0.6,-9.6 1,-14.3 0.3,-4.7 0.7,-9.3 1.2,-13.8 0.4,-4.4 0.9,-8.6 1.4,-12.3 z"
   id="path12" />
			<path
   d="M 422.3,91.2 V 36.8 h 35 v 8.4 h -25.1 v 13.4 h 22.3 v 8.2 h -22.3 v 15.9 h 26.9 v 8.4 h -36.8 z"
   id="path14" />
			<path
   d="m 491.8,44.3 c -5.6,0 -9.9,1.7 -12.8,5.2 -3,3.5 -4.4,8.3 -4.4,14.5 0,2.9 0.4,5.6 1.1,8.1 0.7,2.4 1.8,4.5 3.1,6.2 1.4,1.7 3.1,3.1 5.2,4 2.1,1 4.5,1.5 7.3,1.5 1.7,0 3.2,-0.1 4.5,-0.2 1.3,-0.1 2.3,-0.3 3,-0.5 V 63.5 h 9.9 v 26.2 c -1.4,0.5 -3.7,1.1 -6.9,1.7 -3.2,0.6 -7,0.9 -11.2,0.9 -3.9,0 -7.5,-0.6 -10.8,-1.9 -3.2,-1.3 -6,-3.1 -8.3,-5.5 -2.3,-2.4 -4,-5.4 -5.3,-8.9 -1.3,-3.5 -1.9,-7.5 -1.9,-12.1 0,-4.6 0.7,-8.6 2.1,-12.1 1.4,-3.5 3.3,-6.5 5.7,-8.9 2.4,-2.4 5.2,-4.3 8.5,-5.5 3.2,-1.3 6.7,-1.9 10.4,-1.9 2.5,0 4.8,0.2 6.7,0.5 2,0.3 3.7,0.7 5.1,1.1 1.4,0.4 2.6,0.9 3.5,1.3 0.9,0.5 1.6,0.8 1.9,1 l -3,8.1 c -1.6,-0.9 -3.5,-1.7 -5.9,-2.4 -2.5,-0.5 -4.9,-0.8 -7.5,-0.8 z"
   id="path16" />
			<path
   d="m 556.2,91.2 c -0.7,-2.1 -1.5,-4.3 -2.3,-6.4 -0.8,-2.1 -1.5,-4.2 -2.3,-6.4 h -23 c -0.7,2.2 -1.5,4.4 -2.2,6.5 -0.8,2.1 -1.5,4.2 -2.2,6.3 h -10.3 c 2,-5.8 4,-11.2 5.8,-16.1 1.8,-4.9 3.6,-9.6 5.4,-14 1.8,-4.4 3.5,-8.6 5.2,-12.6 1.7,-4 3.5,-7.9 5.3,-11.8 h 9.4 c 1.8,3.9 3.6,7.8 5.3,11.8 1.7,4 3.5,8.2 5.2,12.6 1.8,4.4 3.6,9.1 5.4,14 1.9,4.9 3.8,10.3 5.9,16.1 z m -16,-43.9 c -1.2,2.8 -2.6,6.2 -4.1,10.1 -1.5,4 -3.2,8.3 -4.8,13 h 17.9 c -1.7,-4.7 -3.3,-9 -4.9,-13 -1.6,-4 -3,-7.4 -4.1,-10.1 z"
   id="path18" />
			<path
   d="m 340,75.5 c 1.4,-3.5 2,-7.5 2,-12.1 0,-4.6 -0.7,-8.6 -2.1,-12 -1.4,-3.5 -3.2,-6.4 -5.6,-8.7 -2.3,-2.4 -5.1,-4.1 -8.2,-5.3 -3.1,-1.2 -6.4,-1.8 -9.9,-1.8 -3.5,0 -6.8,0.6 -9.9,1.8 -3.1,1.2 -5.9,2.9 -8.3,5.3 -2.4,2.4 -4.3,5.3 -5.7,8.7 -1.4,3.5 -2.1,7.5 -2.1,12 0,4.6 0.7,8.6 2.1,12.1 1.2,2.9 2.7,5.4 4.5,7.6 h -6.6 v 8.2 h 21.7 V 91 83 82.1 c -0.9,-0.2 -1.7,-0.5 -2.5,-0.8 -1.9,-0.9 -3.6,-2.2 -5,-3.9 -1.4,-1.7 -2.4,-3.7 -3.1,-6.1 -0.7,-2.4 -1.1,-5 -1.1,-8 0,-2.9 0.4,-5.6 1.1,-7.9 0.7,-2.4 1.8,-4.4 3.1,-6.1 1.4,-1.7 3,-3 5,-3.9 1.9,-0.9 4.2,-1.4 6.6,-1.4 2.4,0 4.6,0.5 6.5,1.4 1.9,0.9 3.6,2.2 5,3.9 1.4,1.7 2.4,3.7 3.1,6.1 0.7,2.4 1.1,5 1.1,8 0,2.9 -0.4,5.6 -1.1,8 -0.7,2.4 -1.8,4.4 -3.1,6.1 -1.4,1.7 -3,3 -5,3.9 -0.8,0.4 -1.6,0.6 -2.4,0.8 v 0.8 7.9 0.3 H 342 V 83 h -6.5 c 1.8,-2.1 3.3,-4.6 4.5,-7.5 z"
   id="path20" />
		</g>
		<g
   id="g30">
			<g
   id="g26">
				<rect
   x="0"
   y="71.699997"
   class="st0"
   width="52.200001"
   height="7.9000001"
   id="rect24" />
			</g>
			<path
   d="m 26.9,78.5 c -0.7,2.2 -3.8,10.7 -4.5,12.8 H 12.2 c 2,-5.8 4,-11.2 5.8,-16.1 1.8,-4.9 3.6,-9.6 5.4,-14 1.8,-4.4 3.5,-8.6 5.2,-12.6 1.7,-4 3.5,-7.9 5.3,-11.8 h 9.4 c 1.8,3.9 3.6,7.8 5.3,11.8 1.7,4 3.5,8.2 5.2,12.6 1.8,4.4 3.6,9.1 5.4,14 1.9,4.9 3.8,10.3 5.9,16.1 H 54.5 C 53.8,89.2 50.7,80.7 49.9,78.5 48.2,73.8 44.1,61.5 42.5,57.4 40.9,53.4 39.6,50 38.4,47.3 c -1.2,2.8 -2.6,6.2 -4.1,10.1 -1.5,4.1 -5.7,16.4 -7.4,21.1 z"
   id="path28" />
		</g>
	</g>
</g>
</svg>
