<?xml version="1.0" encoding="UTF-8" standalone="no"?>
<svg
   xmlns:dc="http://purl.org/dc/elements/1.1/"
   xmlns:cc="http://creativecommons.org/ns#"
   xmlns:rdf="http://www.w3.org/1999/02/22-rdf-syntax-ns#"
   xmlns:svg="http://www.w3.org/2000/svg"
   xmlns="http://www.w3.org/2000/svg"
   xmlns:sodipodi="http://sodipodi.sourceforge.net/DTD/sodipodi-0.dtd"
   xmlns:inkscape="http://www.inkscape.org/namespaces/inkscape"
   version="1.1"
   id="Layer_1"
   x="0px"
   y="0px"
   viewBox="0 0 284.66096 148.39651"
   xml:space="preserve"
   sodipodi:docname="5d07dc3917bf6193f2e37f9b_logo-AO.svg"
   width="284.66098"
   height="148.39651"
   inkscape:version="1.0.2-2 (e86c870879, 2021-01-15)"><metadata
   id="metadata23"><rdf:RDF><cc:Work
       rdf:about=""><dc:format>image/svg+xml</dc:format><dc:type
         rdf:resource="http://purl.org/dc/dcmitype/StillImage" /><dc:title></dc:title></cc:Work></rdf:RDF></metadata><defs
   id="defs21" /><sodipodi:namedview
   pagecolor="#ffffff"
   bordercolor="#666666"
   borderopacity="1"
   objecttolerance="10"
   gridtolerance="10"
   guidetolerance="10"
   inkscape:pageopacity="0"
   inkscape:pageshadow="2"
   inkscape:window-width="1920"
   inkscape:window-height="1017"
   id="namedview19"
   showgrid="false"
   inkscape:zoom="1.5142487"
   inkscape:cx="302.47347"
   inkscape:cy="146.69273"
   inkscape:window-x="-8"
   inkscape:window-y="-8"
   inkscape:window-maximized="1"
   inkscape:current-layer="g14" />
<style
   type="text/css"
   id="style2">
	.st0{fill:#EC6B00;}
</style>

<g
   id="g16"
   transform="translate(-38.359182,-9.7924267)"><g
   id="g6"
   transform="matrix(2.6642103,0,0,2.6642103,-588.13976,-85.05346)"><path
     d="m 340,75.5 c 1.4,-3.5 2,-7.5 2,-12.1 0,-4.6 -0.7,-8.6 -2.1,-12 -1.4,-3.5 -3.2,-6.4 -5.6,-8.7 -2.3,-2.4 -5.1,-4.1 -8.2,-5.3 -3.1,-1.2 -6.4,-1.8 -9.9,-1.8 -3.5,0 -6.8,0.6 -9.9,1.8 -3.1,1.2 -5.9,2.9 -8.3,5.3 -2.4,2.4 -4.3,5.3 -5.7,8.7 -1.4,3.5 -2.1,7.5 -2.1,12 0,4.6 0.7,8.6 2.1,12.1 1.2,2.9 2.7,5.4 4.5,7.6 h -6.6 v 8.2 h 21.7 V 91 83 82.1 c -0.9,-0.2 -1.7,-0.5 -2.5,-0.8 -1.9,-0.9 -3.6,-2.2 -5,-3.9 -1.4,-1.7 -2.4,-3.7 -3.1,-6.1 -0.7,-2.4 -1.1,-5 -1.1,-8 0,-2.9 0.4,-5.6 1.1,-7.9 0.7,-2.4 1.8,-4.4 3.1,-6.1 1.4,-1.7 3,-3 5,-3.9 1.9,-0.9 4.2,-1.4 6.6,-1.4 2.4,0 4.6,0.5 6.5,1.4 1.9,0.9 3.6,2.2 5,3.9 1.4,1.7 2.4,3.7 3.1,6.1 0.7,2.4 1.1,5 1.1,8 0,2.9 -0.4,5.6 -1.1,8 -0.7,2.4 -1.8,4.4 -3.1,6.1 -1.4,1.7 -3,3 -5,3.9 -0.8,0.4 -1.6,0.6 -2.4,0.8 v 0.8 7.9 0.3 H 342 V 83 h -6.5 c 1.8,-2.1 3.3,-4.6 4.5,-7.5 z"
     id="path4" /></g><g
   id="g14"
   transform="matrix(2.6642103,0,0,2.6642103,5.8558161,-85.05346)"><path
     d="m 26.9,78.5 c -0.7,2.2 -3.8,10.7 -4.5,12.8 H 12.2 c 2,-5.8 4,-11.2 5.8,-16.1 1.8,-4.9 3.6,-9.6 5.4,-14 1.8,-4.4 3.5,-8.6 5.2,-12.6 1.7,-4 3.5,-7.9 5.3,-11.8 h 9.4 c 1.8,3.9 3.6,7.8 5.3,11.8 1.7,4 3.5,8.2 5.2,12.6 1.8,4.4 3.6,9.1 5.4,14 1.9,4.9 3.8,10.3 5.9,16.1 H 54.5 C 53.8,89.2 50.7,80.7 49.9,78.5 48.2,73.8 44.1,61.5 42.5,57.4 40.9,53.4 39.6,50 38.4,47.3 c -1.2,2.8 -2.6,6.2 -4.1,10.1 -1.5,4.1 -5.7,16.4 -7.4,21.1 z"
     id="path12" /></g>
	
    
</g>
</svg>
